<svg width="246" height="215" viewBox="0 0 246 215" fill="none" xmlns="http://www.w3.org/2000/svg">
<g filter="url(#filter0_d_16_650)">
<path d="M39.36 186.831C39.36 188.239 38.72 189.679 37.44 191.151C36.032 192.751 34.432 193.551 32.64 193.551H12.48C10.688 193.551 9.12 192.879 7.776 191.535C6.432 190.191 5.76 188.623 5.76 186.831V180.111H13.44V186.831H31.68V153.231H5.76V146.511H39.36V186.831ZM88.32 193.551H81.6V188.751L76.8 193.551H61.44C59.584 193.551 57.984 192.911 56.64 191.631C55.36 190.287 54.72 188.687 54.72 186.831V159.951H61.44V187.791H81.6V159.951H88.32V193.551ZM109.463 193.551H102.743V144.591L109.463 137.871V193.551ZM156.068 193.551H149.348V188.655L143.588 193.551H129.188C127.332 193.551 125.732 192.911 124.388 191.631C123.108 190.287 122.468 188.687 122.468 186.831V180.111C122.468 178.255 123.108 176.687 124.388 175.407C125.732 174.063 127.332 173.391 129.188 173.391H148.388L142.628 179.055H129.188V187.791H149.348V165.711H122.468L128.228 159.951H149.348C151.204 159.951 152.772 160.623 154.052 161.967C155.396 163.247 156.068 164.815 156.068 166.671V193.551ZM201.63 193.551H194.91V188.655L189.15 193.551H174.75C172.894 193.551 171.294 192.911 169.95 191.631C168.67 190.287 168.03 188.687 168.03 186.831V180.111C168.03 178.255 168.67 176.687 169.95 175.407C171.294 174.063 172.894 173.391 174.75 173.391H193.95L188.19 179.055H174.75V187.791H194.91V165.711H168.03L173.79 159.951H194.91C196.766 159.951 198.334 160.623 199.614 161.967C200.958 163.247 201.63 164.815 201.63 166.671V193.551ZM240.953 193.551H212.153V186.831L233.273 166.671V165.711H212.153V159.951H240.953V166.671L219.833 186.831V187.791H240.953V193.551Z" fill="#00A754"/>
<line x1="111.237" y1="32.6382" x2="70.7833" y2="113.591" stroke="#00A754" stroke-width="4.67324"/>
<line x1="168.884" y1="2.87267" x2="139.112" y2="46.267" stroke="#00A754" stroke-width="4.67324"/>
<line x1="74.1571" y1="2.57451" x2="21.1193" y2="111.394" stroke="#00A754" stroke-width="4.67324"/>
<line x1="71.4629" y1="112.708" x2="55.4404" y2="112.708" stroke="#00A754" stroke-width="4.67324"/>
<line x1="21.0234" y1="112.708" x2="5.0009" y2="112.708" stroke="#00A754" stroke-width="4.67324"/>
<line x1="95.85" y1="1.78192" x2="154.599" y2="111.269" stroke="#00A754" stroke-width="4.67324"/>
<line x1="167.985" y1="1.84695" x2="221.394" y2="109.331" stroke="#00A754" stroke-width="4.67324"/>
<line x1="117.215" y1="1.7858" x2="174.629" y2="109.27" stroke="#00A754" stroke-width="4.67324"/>
<path d="M138.707 2.20117L150.724 28.9054" stroke="#00A754" stroke-width="4.67324"/>
<line x1="172.568" y1="108.034" x2="241.999" y2="108.034" stroke="#00A754" stroke-width="4.67324"/>
<line x1="72.4822" y1="1.10935" x2="99.8541" y2="51.8474" stroke="#00A754" stroke-width="4.67324"/>
<rect width="8.01127" height="8.01127" rx="1.33521" transform="matrix(-1 0 0 1 109.146 64.3066)" fill="#00A754"/>
<rect width="8.01127" height="8.01127" rx="1.33521" transform="matrix(-1 0 0 1 166.957 34.2637)" fill="#00A754"/>
<rect width="8.01127" height="8.01127" rx="1.33521" transform="matrix(-1 0 0 1 72.0566 34.2637)" fill="#00A754"/>
<rect width="8.01127" height="8.01127" rx="1.33521" transform="matrix(-1 0 0 1 109.146 74.9883)" fill="#00A754"/>
<rect width="8.01127" height="8.01127" rx="1.33521" transform="matrix(-1 0 0 1 166.957 44.9453)" fill="#00A754"/>
<rect width="8.01127" height="8.01127" rx="1.33521" transform="matrix(-1 0 0 1 72.0566 44.9453)" fill="#00A754"/>
<rect width="8.01127" height="8.01127" rx="1.33521" transform="matrix(-1 0 0 1 120.496 64.3066)" fill="#00A754"/>
<rect width="8.01127" height="8.01127" rx="1.33521" transform="matrix(-1 0 0 1 178.307 34.2637)" fill="#00A754"/>
<rect width="8.01127" height="8.01127" rx="1.33521" transform="matrix(-1 0 0 1 83.4062 34.2637)" fill="#00A754"/>
<rect width="8.01127" height="8.01127" rx="1.33521" transform="matrix(-1 0 0 1 120.496 74.9883)" fill="#00A754"/>
<rect width="8.01127" height="8.01127" rx="1.33521" transform="matrix(-1 0 0 1 178.307 44.9453)" fill="#00A754"/>
<rect width="8.01127" height="8.01127" rx="1.33521" transform="matrix(-1 0 0 1 83.4062 44.9453)" fill="#00A754"/>
</g>
<defs>
<filter id="filter0_d_16_650" x="-4" y="0" width="253" height="222.551" filterUnits="userSpaceOnUse" color-interpolation-filters="sRGB">
<feFlood flood-opacity="0" result="BackgroundImageFix"/>
<feColorMatrix in="SourceAlpha" type="matrix" values="0 0 0 0 0 0 0 0 0 0 0 0 0 0 0 0 0 0 127 0" result="hardAlpha"/>
<feOffset dy="4"/>
<feGaussianBlur stdDeviation="2"/>
<feComposite in2="hardAlpha" operator="out"/>
<feColorMatrix type="matrix" values="0 0 0 0 0 0 0 0 0 0 0 0 0 0 0 0 0 0 0.25 0"/>
<feBlend mode="normal" in2="BackgroundImageFix" result="effect1_dropShadow_16_650"/>
<feBlend mode="normal" in="SourceGraphic" in2="effect1_dropShadow_16_650" result="shape"/>
</filter>
</defs>
</svg>
