<svg width="95" height="95" viewBox="0 0 95 95" fill="none" xmlns="http://www.w3.org/2000/svg">
<path fill-rule="evenodd" clip-rule="evenodd" d="M61.0295 22.3347C60.4836 21.4624 59.6794 20.7821 58.7287 20.3883C57.778 19.9945 56.7282 19.907 55.7254 20.1378L48.6083 21.7726C47.8789 21.9403 47.121 21.9403 46.3916 21.7726L39.2745 20.1378C38.2718 19.907 37.2219 19.9945 36.2713 20.3883C35.3206 20.7821 34.5163 21.4624 33.9704 22.3347L30.0912 28.5255C29.6954 29.1589 29.161 29.6932 28.5277 30.093L22.3368 33.9722C21.4661 34.5176 20.7867 35.3206 20.393 36.2697C19.9994 37.2187 19.9109 38.2668 20.14 39.2684L21.7747 46.3934C21.9418 47.1216 21.9418 47.878 21.7747 48.6062L20.14 55.7272C19.91 56.7294 19.998 57.7783 20.3917 58.7282C20.7854 59.6781 21.4653 60.4817 22.3368 61.0274L28.5277 64.9066C29.161 65.3024 29.6954 65.8368 30.0952 66.4701L33.9743 72.6609C35.0906 74.4462 37.2202 75.3289 39.2745 74.8578L46.3916 73.223C47.121 73.0554 47.8789 73.0554 48.6083 73.223L55.7293 74.8578C56.7315 75.0878 57.7805 74.9998 58.7304 74.606C59.6802 74.2123 60.4839 73.5325 61.0295 72.6609L64.9087 66.4701C65.3045 65.8368 65.8389 65.3024 66.4722 64.9066L72.667 61.0274C73.5386 60.4809 74.2182 59.6764 74.6112 58.7258C75.0042 57.7751 75.0912 56.7256 74.86 55.7232L73.2291 48.6062C73.0615 47.8768 73.0615 47.1189 73.2291 46.3895L74.8639 39.2684C75.0942 38.2666 75.0068 37.218 74.6138 36.2682C74.2209 35.3183 73.5418 34.5145 72.671 33.9682L66.4762 30.0891C65.8438 29.6925 65.3092 29.158 64.9127 28.5255L61.0295 22.3347ZM59.0385 38.6707C59.2833 38.2205 59.344 37.6929 59.2077 37.1989C59.0714 36.7049 58.7489 36.283 58.3079 36.022C57.8669 35.761 57.3418 35.6812 56.8432 35.7994C56.3445 35.9177 55.9112 36.2247 55.6343 36.6559L45.2833 54.1755L39.0331 48.1905C38.8477 48.0001 38.6258 47.849 38.3807 47.7463C38.1356 47.6435 37.8724 47.5911 37.6066 47.5922C37.3408 47.5934 37.078 47.6481 36.8339 47.753C36.5897 47.8579 36.3691 48.0109 36.1854 48.2029C36.0016 48.3949 35.8584 48.622 35.7643 48.8705C35.6702 49.1191 35.6271 49.384 35.6376 49.6496C35.6481 49.9151 35.712 50.1758 35.8254 50.4162C35.9389 50.6565 36.0995 50.8716 36.2979 51.0484L44.3491 58.7632C44.5646 58.9693 44.8239 59.124 45.1075 59.2158C45.3912 59.3076 45.6919 59.3341 45.9873 59.2934C46.2826 59.2527 46.5649 59.1457 46.8132 58.9806C47.0614 58.8155 47.2691 58.5964 47.4208 58.3397L59.0385 38.6707Z" fill="#00A754"/>
</svg>
